<svg width="117" height="111" viewBox="0 0 117 111" fill="none" xmlns="http://www.w3.org/2000/svg">
<g clip-path="url(#clip0_49345_2)">
<path d="M90.6165 59.6203C96.7437 39.6542 95.3395 21.5132 87.4802 19.1013C79.6208 16.6894 68.2824 30.9199 62.1551 50.886C56.0279 70.8521 57.4321 88.993 65.2915 91.4049C73.1508 93.8168 84.4892 79.5864 90.6165 59.6203Z" fill="#303646"/>
<path d="M88.2754 58.9027C94.4027 38.9366 93.4595 20.9371 86.1689 18.6998C78.8782 16.4624 68.0009 30.8344 61.8736 50.8005C55.7464 70.7666 56.6895 88.766 63.9802 91.0034C71.2708 93.2408 82.1482 78.8688 88.2754 58.9027Z" fill="white"/>
<path d="M86.0745 58.2278C91.49 40.581 90.6566 24.6725 84.213 22.695C77.7694 20.7176 68.1557 33.4201 62.7402 51.067C57.3247 68.7138 58.1581 84.6223 64.6018 86.5998C71.0454 88.5772 80.659 75.8747 86.0745 58.2278Z" fill="#CD2B31"/>
<path d="M83.3356 57.3833C87.7442 43.0178 87.0655 30.0673 81.8199 28.4575C76.5743 26.8477 68.748 37.1883 64.3395 51.5538C59.931 65.9193 60.6096 78.8698 65.8552 80.4796C71.1009 82.0894 78.9271 71.7488 83.3356 57.3833Z" fill="white"/>
<path d="M81.5574 56.0846C85.1436 44.4188 84.5972 33.9002 80.3371 32.5906C76.077 31.2811 69.7164 39.6764 66.1303 51.3422C62.5441 63.008 63.0904 73.5266 67.3505 74.8362C71.6106 76.1458 77.9713 67.7504 81.5574 56.0846Z" fill="#CD2B31"/>
<path d="M77.8266 55.6957C80.2212 47.8928 79.8522 40.8583 77.0025 39.9838C74.1528 39.1093 69.9015 44.7259 67.5069 52.5288C65.1123 60.3317 65.4813 67.3661 68.331 68.2406C71.1807 69.1152 75.432 63.4986 77.8266 55.6957Z" fill="white"/>
<path d="M75.9793 54.3707C77.1889 50.4357 77.0042 46.8875 75.5667 46.4456C74.1292 46.0037 71.9832 48.8354 70.7735 52.7705C69.5639 56.7055 69.7486 60.2537 71.1861 60.6956C72.6237 61.1375 74.7696 58.3058 75.9793 54.3707Z" fill="#CD2B31"/>
<path d="M68.6614 48.8254C67.7974 49.9227 65.202 52.8881 65.2588 53.3899C65.3156 53.8917 68.6723 52.8905 68.8377 52.0297C69.003 51.1689 68.6614 48.8254 68.6614 48.8254Z" fill="#BAB3B4"/>
<path d="M6.88568 20.4289C7.20314 20.3044 11.0716 18.912 11.945 19.1055C12.5373 19.2707 13.0784 19.5826 13.5184 20.0123C11.0141 21.2692 9.46872 22.0427 8.32803 21.4035C7.73513 21.0688 7.28534 20.8503 7.03305 20.7035C6.78077 20.5566 6.73298 20.4913 6.88568 20.4289Z" fill="white"/>
<path opacity="0.09" d="M6.88573 20.4289C7.20319 20.3044 11.0717 18.912 11.945 19.1055C11.7007 19.615 8.40576 21.344 7.03311 20.7035C6.80354 20.5657 6.73304 20.4913 6.88573 20.4289Z" fill="#1F1F39"/>
<path d="M5.37743 19.5262C5.69012 19.3991 9.5634 18.0093 10.432 18.2002C11.0369 18.374 11.5871 18.7002 12.0297 19.1475C9.52542 20.4044 7.96126 21.1557 6.81612 20.5019C6.22576 20.1625 5.77713 19.9476 5.52485 19.8008C5.27256 19.6539 5.22362 19.585 5.37743 19.5262Z" fill="white"/>
<path opacity="0.09" d="M5.37733 19.5262C5.69003 19.3992 9.5633 18.0093 10.4319 18.2003C10.1876 18.7098 8.37349 19.9124 5.52475 19.8008C5.28787 19.6653 5.22352 19.585 5.37733 19.5262Z" fill="#1F1F39"/>
<path d="M3.66917 18.4526C4.3295 18.4106 4.97865 18.2617 5.59124 18.0117L5.6168 18.0039C6.91223 17.498 8.28761 17.0317 8.72373 17.1266C9.37431 17.3376 9.96181 17.7079 10.4328 18.2038C7.92962 19.4643 6.25412 20.0858 5.10676 19.4247C4.5164 19.0852 4.06777 18.8704 3.81548 18.7235L3.73698 18.6755C3.56572 18.5719 3.53364 18.5058 3.66917 18.4526Z" fill="white"/>
<path opacity="0.09" d="M3.66917 18.4526C4.3295 18.4106 4.97865 18.2617 5.59124 18.0117L5.6168 18.0039C6.94337 17.5085 8.33892 17.056 8.77504 17.151C8.53077 17.6605 6.06492 18.7419 3.86424 18.7526L3.7381 18.6792C3.56573 18.5719 3.53364 18.5058 3.66917 18.4526Z" fill="#1F1F39"/>
<path d="M1.97273 17.4038C2.29019 17.2793 6.15866 15.8869 7.0309 16.0767C7.67245 16.2833 8.25369 16.6439 8.72382 17.1268C6.21951 18.3837 4.55657 19.0333 3.41509 18.3784C2.82219 18.0437 2.37239 17.8252 2.12011 17.6784C1.86782 17.5315 1.81893 17.4625 1.97273 17.4038Z" fill="white"/>
<path opacity="0.23" d="M1.97279 17.4037C2.29025 17.2792 6.15871 15.8868 7.03095 16.0766C6.78668 16.5861 3.99777 16.9075 2.12016 17.6783C1.89059 17.5405 1.81898 17.4625 1.97279 17.4037Z" fill="#1F1F39"/>
<path d="M5.87682 15.118C5.97092 15.3668 6.12995 15.5859 6.33735 15.7525C7.54153 16.8235 67.377 52.977 67.5282 53.1985C67.5393 53.2351 67.607 53.2344 67.6885 53.2136C67.8021 53.1837 67.9102 53.136 68.0088 53.0723C68.5097 52.7762 69.1232 52.1025 68.4539 51.5035C68.3937 51.4487 68.3292 51.3989 68.2609 51.3546C68.2609 51.3546 8.71744 14.166 7.54141 14.0407C6.60879 13.9411 5.64575 14.3978 5.87682 15.118Z" fill="#543237"/>
<path d="M11.8057 12.3085C11.8367 12.6465 12.3511 16.7262 12.9164 17.4166C13.3326 17.871 13.8568 18.2128 14.4405 18.4103C14.4297 15.6187 14.4263 13.875 13.3299 13.1584C12.761 12.7845 12.3655 12.4816 12.1194 12.3289C11.8733 12.1762 11.7872 12.1425 11.8057 12.3085Z" fill="white"/>
<path opacity="0.09" d="M11.8056 12.3084C11.8365 12.6464 12.3509 16.7261 12.9163 17.4165C13.2614 16.9761 13.3082 13.2448 12.1159 12.3178C11.8855 12.1643 11.787 12.1424 11.8056 12.3084Z" fill="#1F1F39"/>
<path d="M10.3141 11.3688C10.3451 11.7067 10.8594 15.7864 11.4248 16.4768C11.8537 16.9364 12.3935 17.2781 12.9923 17.4692C12.9816 14.6777 12.9383 12.9341 11.8361 12.2114C11.2672 11.8374 10.8716 11.5346 10.6255 11.3818C10.3794 11.2291 10.2967 11.2064 10.3141 11.3688Z" fill="white"/>
<path opacity="0.09" d="M10.3142 11.3687C10.3451 11.7066 10.8595 15.7863 11.4248 16.4768C11.77 16.0364 12.0159 13.8655 10.6233 11.3745C10.3952 11.2283 10.2967 11.2063 10.3142 11.3687Z" fill="#1F1F39"/>
<path d="M8.58213 10.3345C8.84588 10.9405 9.00842 11.5857 9.06328 12.2443C9.06328 12.2443 9.06884 12.2626 9.07218 12.2735C9.20847 13.6535 9.41451 15.092 9.70013 15.4403C10.1826 15.9236 10.7778 16.279 11.4321 16.4746C11.4214 13.683 11.2136 11.8976 10.1114 11.1749C9.54138 10.7973 9.14584 10.4944 8.90452 10.3442L8.82603 10.2962C8.64158 10.1886 8.56912 10.1867 8.58213 10.3345Z" fill="white"/>
<path opacity="0.09" d="M8.58212 10.3344C8.84586 10.9404 9.0084 11.5856 9.06327 12.2442C9.06327 12.2442 9.06882 12.2625 9.07216 12.2735C9.23196 13.6782 9.46072 15.1258 9.74523 15.4704C10.0904 15.0301 9.93218 12.3313 8.94484 10.3718L8.82379 10.2888C8.64156 10.1886 8.56911 10.1866 8.58212 10.3344Z" fill="#1F1F39"/>
<path d="M6.87687 9.29621C6.90892 9.63781 7.4233 13.7175 7.99121 14.4031C8.4647 14.8838 9.04903 15.2408 9.69285 15.4426C9.6821 12.6511 9.49739 10.8627 8.40247 10.1377C7.83357 9.76378 7.43803 9.46088 7.19194 9.30816C6.94585 9.15544 6.86307 9.13272 6.87687 9.29621Z" fill="white"/>
<path opacity="0.23" d="M6.87686 9.29606C6.90891 9.63766 7.4233 13.7173 7.99121 14.403C8.33636 13.9626 7.35483 11.3266 7.19082 9.30436C6.96158 9.1545 6.86306 9.13257 6.87686 9.29606Z" fill="#1F1F39"/>
<path opacity="0.47" d="M5.87695 15.118C5.97105 15.3668 6.13008 15.5859 6.33748 15.7525C7.54166 16.8235 67.3771 52.977 67.5283 53.1985C67.5725 53.265 67.7794 53.21 68.009 53.0723C60.9999 48.5767 11.4409 18.2885 5.87695 15.118Z" fill="#1F1F39"/>
<path d="M65.1091 53.6191C65.0475 54.3486 72.6475 55.6939 73.2419 55.2855L73.2675 55.2777C73.6737 54.8148 69.0491 48.7474 68.6649 48.8363C68.2807 48.9253 68.1035 51.0593 67.5563 52.0562L67.538 52.0618C66.9889 53.0393 65.1481 53.1042 65.1091 53.6191Z" fill="white"/>
<path opacity="0.22" d="M65.109 53.6191C65.0474 54.3485 72.6473 55.6938 73.2418 55.2854C71.0032 53.5309 68.8186 52.3868 67.539 52.0654C66.9888 53.0393 65.148 53.1041 65.109 53.6191Z" fill="#1F1F39"/>
</g>
<defs>
<clipPath id="clip0_49345_2">
<rect width="117" height="111" fill="white"/>
</clipPath>
</defs>
</svg>
